<?xml version="1.0" encoding="UTF-8"?>
<svg id="Calque_1" data-name="Calque 1" xmlns="http://www.w3.org/2000/svg" xmlns:xlink="http://www.w3.org/1999/xlink" viewBox="0 0 256 60">
  <defs>
    <style>
      .cls-1 {
        fill: none;
      }

      .cls-2 {
        fill: #000091;
      }

      .cls-3, .cls-4 {
        fill: #0063cb;
      }

      .cls-5, .cls-4, .cls-6 {
        fill-rule: evenodd;
      }

      .cls-5, .cls-7 {
        fill: #fff;
      }

      .cls-8, .cls-6 {
        fill: #e1000f;
      }

      .cls-9 {
        clip-path: url(#clippath);
      }
    </style>
    <clipPath id="clippath">
      <rect class="cls-1" width="256" height="60"/>
    </clipPath>
  </defs>
  <g class="cls-9">
    <g>
      <path class="cls-2" d="M256,0H0v60h256V0Z"/>
      <path class="cls-7" d="M240,32.79v-5.57h-10.18v-10.21h-5.58v10.21h-10.24v5.57h10.24v10.21h5.58v-10.21h10.18Z"/>
      <path class="cls-7" d="M74.08,26.3c.52,0,1-.08,1.44-.24.44-.16.83-.38,1.15-.68s.57-.64.76-1.05c.19-.41.28-.86.28-1.36,0-.95-.29-1.67-.88-2.18-.59-.51-1.22-.94-1.92-1.29-.69-.35-1.33-.71-1.92-1.06-.59-.35-.88-.85-.88-1.48,0-.48.17-.89.5-1.22.33-.33.77-.5,1.32-.5.52,0,.99.13,1.41.4.42.26.81.64,1.16,1.14l1.18-1.03c-.44-.57-.97-1.04-1.59-1.39-.62-.35-1.34-.53-2.18-.53-.5,0-.95.08-1.38.25-.42.17-.78.4-1.09.68-.3.29-.54.62-.71,1.01-.17.39-.25.8-.25,1.22,0,.93.29,1.65.88,2.16.59.51,1.22.94,1.92,1.29.69.35,1.33.71,1.92,1.06.59.35.88.85.88,1.48,0,.54-.18.99-.53,1.35-.35.36-.85.54-1.49.54-.55,0-1.07-.13-1.56-.4-.49-.27-.94-.66-1.36-1.18l-1.15,1.06c.52.64,1.11,1.13,1.77,1.45.66.33,1.43.49,2.31.49ZM80.73,18.69l1.74-4.52h-1.64l-1.43,4.52h1.33ZM85.53,15.26c.28,0,.52-.1.71-.3.19-.2.29-.44.29-.72s-.1-.5-.29-.7c-.19-.2-.43-.3-.71-.3s-.52.1-.72.3c-.2.2-.3.43-.3.7s.1.52.3.72c.2.2.44.3.72.3ZM86.24,25.98v-8.51h-1.43v8.51h1.43ZM92.92,26.32c.61,0,1.17-.11,1.68-.33s.96-.54,1.34-.95v.95h1.43v-12.66h-1.43v5.1c-.38-.42-.83-.73-1.34-.95-.51-.22-1.07-.33-1.68-.33-.66,0-1.27.12-1.81.37-.54.25-1,.58-1.38,1-.38.42-.67.9-.88,1.46s-.31,1.14-.31,1.76.1,1.21.31,1.76c.21.56.5,1.04.88,1.46.38.42.84.75,1.38,1,.54.25,1.14.37,1.81.37ZM93.09,24.97c-.45,0-.86-.08-1.23-.25-.37-.17-.69-.4-.95-.69-.26-.29-.47-.64-.62-1.03-.15-.39-.22-.82-.22-1.27s.07-.87.22-1.27c.15-.39.35-.74.62-1.03.26-.29.58-.52.95-.69.37-.17.78-.25,1.23-.25.57,0,1.11.14,1.6.41.5.27.91.66,1.25,1.18v3.31c-.33.51-.74.9-1.23,1.17-.5.28-1.03.41-1.62.41ZM104.31,26.32c.79,0,1.49-.16,2.12-.47.62-.32,1.13-.74,1.53-1.27l-1.06-.83c-.28.38-.64.69-1.08.92-.44.23-.93.35-1.47.35-.94,0-1.71-.31-2.3-.92-.59-.61-.89-1.39-.89-2.32v-.03h6.51c.02-.11.05-.25.07-.41.02-.16.03-.33.03-.5,0-.53-.09-1.02-.27-1.48-.18-.46-.44-.85-.77-1.17-.33-.33-.74-.58-1.21-.77-.47-.19-1-.28-1.57-.28-.65,0-1.25.12-1.78.35-.53.24-.98.56-1.35.97-.37.41-.65.9-.85,1.46-.2.56-.3,1.16-.3,1.81s.11,1.21.32,1.76c.21.56.52,1.04.92,1.46.4.42.89.75,1.47,1,.58.25,1.22.37,1.93.37ZM106.32,20.61h-5.05c.17-.73.49-1.29.96-1.67.47-.38,1.05-.57,1.74-.57s1.26.22,1.68.67c.42.44.65.97.67,1.58ZM111.64,25.98v-5.89c.27-.45.61-.83,1.02-1.14.41-.31.92-.46,1.53-.46.65,0,1.17.21,1.57.63.39.42.59,1.01.59,1.76v5.1h1.45v-5.15c0-1.2-.32-2.12-.95-2.75-.64-.63-1.43-.95-2.37-.95-.63,0-1.17.12-1.63.36-.46.24-.86.55-1.21.94v-.96h-1.43v8.51h1.43ZM124.13,26.15c.3,0,.57-.02.81-.06.24-.04.46-.1.66-.18v-1.28c-.16.07-.34.12-.54.15-.2.03-.44.05-.72.05-.52,0-.93-.12-1.24-.35-.31-.24-.46-.69-.46-1.35v-4.34h2.95v-1.32h-2.95v-2.13h-1.45v2.13h-1.6v1.32h1.6v4.34c0,1.04.26,1.8.77,2.29s1.24.73,2.19.73ZM128.5,15.26c.28,0,.52-.1.71-.3.19-.2.29-.44.29-.72s-.1-.5-.29-.7c-.19-.2-.43-.3-.71-.3s-.52.1-.72.3c-.2.2-.29.43-.29.7s.1.52.29.72c.2.2.44.3.72.3ZM129.21,25.98v-8.51h-1.43v8.51h1.43ZM134.19,25.98v-7.19h2.95v-1.32h-2.95v-1.08c0-.55.15-.98.45-1.3.3-.32.68-.47,1.14-.47.29,0,.54.05.75.16.21.11.38.24.53.41l.89-1.05c-.25-.25-.56-.45-.93-.6-.37-.15-.79-.23-1.26-.23-.91,0-1.64.29-2.19.87-.55.58-.83,1.32-.83,2.24v1.05h-1.6v1.32h1.6v7.19h1.45ZM139.62,15.26c.28,0,.52-.1.71-.3.19-.2.29-.44.29-.72s-.1-.5-.29-.7c-.19-.2-.43-.3-.71-.3s-.52.1-.72.3c-.2.2-.29.43-.29.7s.1.52.29.72c.2.2.44.3.72.3ZM140.33,25.98v-8.51h-1.43v8.51h1.43ZM147.29,26.32c.79,0,1.49-.16,2.12-.47.62-.32,1.13-.74,1.53-1.27l-1.06-.83c-.28.38-.64.69-1.08.92-.44.23-.93.35-1.47.35-.94,0-1.71-.31-2.3-.92-.59-.61-.89-1.39-.89-2.32v-.03h6.52c.02-.11.04-.25.07-.41.02-.16.03-.33.03-.5,0-.53-.09-1.02-.27-1.48-.18-.46-.44-.85-.77-1.17-.33-.33-.73-.58-1.21-.77-.47-.19-1-.28-1.57-.28-.65,0-1.25.12-1.78.35-.54.24-.99.56-1.35.97-.37.41-.65.9-.85,1.46-.2.56-.3,1.16-.3,1.81s.11,1.21.32,1.76c.21.56.52,1.04.92,1.46.4.42.89.75,1.47,1,.58.25,1.22.37,1.93.37ZM149.3,20.61h-5.05c.17-.73.49-1.29.96-1.67.47-.38,1.05-.57,1.74-.57s1.26.22,1.68.67c.42.44.64.97.67,1.58ZM154.61,25.98v-5.77c.26-.43.58-.77.96-1.04.38-.26.85-.4,1.4-.4.17,0,.32.01.46.03.13.02.26.05.39.08v-1.49c-.1-.03-.21-.06-.34-.08-.12-.02-.25-.03-.39-.03-.54,0-1.01.11-1.41.34-.4.23-.76.52-1.07.89v-1.06h-1.44v8.51h1.44ZM166.77,26.32c.57,0,1.11-.12,1.62-.37.51-.25.92-.6,1.23-1.05v1.08h1.43v-5.71c0-.93-.3-1.69-.91-2.27-.61-.58-1.45-.87-2.53-.87-.74,0-1.41.15-1.99.44-.58.29-1.06.69-1.43,1.2l1.08.83c.25-.37.57-.66.97-.87.4-.21.85-.31,1.34-.31.6,0,1.09.16,1.47.49.38.33.57.78.57,1.37v.59l-2.85.47c-.91.15-1.61.44-2.09.89s-.72,1-.72,1.65c0,.74.26,1.33.78,1.77.52.44,1.19.66,2.03.66ZM167,25.12c-.48,0-.87-.12-1.16-.37-.29-.25-.44-.55-.44-.91s.14-.69.41-.95c.28-.26.71-.43,1.29-.52l2.51-.44v1.62c-.29.48-.66.87-1.1,1.15-.45.28-.95.42-1.51.42ZM177.8,25.98l3.33-8.51h-1.55l-2.72,7-2.72-7h-1.55l3.32,8.51h1.89ZM186.67,26.32c.79,0,1.49-.16,2.12-.47.62-.32,1.13-.74,1.53-1.27l-1.06-.83c-.28.38-.64.69-1.08.92-.44.23-.93.35-1.47.35-.95,0-1.71-.31-2.3-.92-.59-.61-.89-1.39-.89-2.32v-.03h6.52c.02-.11.05-.25.07-.41.02-.16.03-.33.03-.5,0-.53-.09-1.02-.27-1.48-.18-.46-.44-.85-.77-1.17-.33-.33-.73-.58-1.21-.77-.47-.19-1-.28-1.57-.28-.65,0-1.25.12-1.78.35-.54.24-.99.56-1.35.97-.36.41-.65.9-.85,1.46-.2.56-.3,1.16-.3,1.81s.11,1.21.32,1.76c.21.56.52,1.04.92,1.46.4.42.89.75,1.47,1,.58.25,1.22.37,1.93.37ZM188.67,20.61h-5.05c.17-.73.49-1.29.96-1.67.47-.38,1.05-.57,1.74-.57s1.26.22,1.68.67c.42.44.64.97.67,1.58ZM196.42,26.32c.78,0,1.47-.16,2.08-.47.61-.32,1.11-.74,1.5-1.27l-1.15-.88c-.26.38-.6.69-1.01.92-.42.23-.88.35-1.4.35-.46,0-.88-.08-1.27-.25-.38-.17-.71-.4-.99-.68-.27-.29-.49-.63-.65-1.03-.16-.4-.24-.82-.24-1.27s.08-.87.24-1.27c.16-.39.37-.74.64-1.03s.6-.52.99-.69.81-.25,1.26-.25c.52,0,.99.12,1.41.35.42.23.76.54,1.02.92l1.15-.88c-.39-.52-.9-.94-1.51-1.26-.61-.32-1.3-.48-2.07-.48-.7,0-1.33.12-1.91.37-.57.25-1.06.58-1.46,1-.4.42-.71.9-.93,1.46-.22.56-.33,1.14-.33,1.76s.11,1.21.33,1.76c.22.56.53,1.04.93,1.46.4.42.89.75,1.46,1,.57.25,1.21.37,1.91.37Z"/>
      <path class="cls-7" d="M72.56,45.02v-5.34h4.07v-2.18h-4.07v-2.92h4.79v-2.18h-7.35v12.62h2.56ZM81.21,45.02v-5.7c.17-.28.44-.54.8-.79.37-.25.83-.38,1.38-.38.2,0,.39.01.55.04.16.02.32.05.46.09v-2.4c-.11-.04-.23-.07-.36-.09-.13-.02-.28-.04-.43-.04-.52,0-.97.11-1.36.32-.39.21-.74.47-1.04.77v-.9h-2.29v9.08h2.29ZM88.4,45.38c.53,0,1.04-.11,1.53-.33.49-.22.88-.51,1.17-.87v.85h2.31v-5.88c0-.49-.08-.96-.25-1.4-.17-.44-.42-.82-.75-1.14-.33-.32-.75-.57-1.25-.76-.5-.19-1.08-.28-1.73-.28-.82,0-1.55.16-2.21.49-.65.32-1.19.76-1.6,1.32l1.69,1.28c.2-.35.48-.62.84-.8.35-.19.75-.28,1.2-.28.52,0,.94.14,1.26.42.32.28.49.66.49,1.14v.23l-2.74.47c-.97.16-1.72.49-2.24.99-.52.5-.78,1.1-.78,1.78,0,.85.29,1.53.86,2.02s1.31.74,2.21.74ZM88.87,43.54c-.38,0-.69-.1-.92-.29s-.34-.43-.34-.72.11-.53.32-.72c.21-.19.56-.33,1.04-.41l2.15-.38v1.24c-.23.37-.53.68-.9.92-.37.24-.82.36-1.33.36ZM98.32,45.02v-5.93c.17-.29.42-.59.75-.89.33-.31.78-.46,1.36-.46s.99.18,1.31.53c.32.35.48.83.48,1.43v5.32h2.33v-5.41c0-.67-.09-1.26-.28-1.77-.19-.5-.44-.93-.76-1.26-.32-.34-.69-.59-1.12-.76-.43-.17-.89-.25-1.38-.25-.6,0-1.12.11-1.56.32-.44.21-.81.47-1.13.77v-.72h-2.29v9.08h2.29ZM111.5,45.38c.83,0,1.57-.17,2.23-.5.65-.34,1.19-.78,1.61-1.33l-1.82-1.39c-.22.31-.5.57-.84.77-.34.2-.74.3-1.18.3-.76,0-1.39-.26-1.88-.78-.5-.52-.75-1.17-.75-1.96s.25-1.45.74-1.96c.49-.52,1.11-.78,1.86-.78.47,0,.87.1,1.22.3.34.2.62.45.84.77l1.82-1.39c-.42-.55-.96-1-1.61-1.33-.65-.34-1.4-.5-2.23-.5-.78,0-1.48.13-2.11.4s-1.15.62-1.58,1.06c-.43.44-.75.96-.98,1.56-.23.59-.34,1.22-.34,1.88s.11,1.29.34,1.88c.23.59.56,1.11.98,1.56.43.44.95.8,1.58,1.06.62.26,1.33.4,2.11.4ZM121.08,45.38c.85,0,1.62-.17,2.31-.5.69-.33,1.24-.78,1.66-1.34l-1.64-1.3c-.24.32-.56.59-.96.78-.4.2-.84.3-1.33.3-.77,0-1.4-.21-1.89-.63-.49-.42-.77-1-.85-1.75h6.36c.04-.16.07-.35.1-.58.03-.23.04-.47.04-.72,0-1.19-.39-2.17-1.15-2.93-.77-.76-1.78-1.14-3.03-1.14-.75,0-1.41.13-1.98.39-.58.26-1.06.61-1.46,1.05-.4.44-.7.96-.91,1.56-.21.59-.32,1.23-.32,1.9s.11,1.29.33,1.88c.22.59.55,1.11.97,1.56.43.44.96.8,1.59,1.06.63.26,1.35.4,2.15.4ZM122.62,39.21h-4.09c.16-.59.42-1.02.79-1.31.37-.28.83-.42,1.39-.42.6,0,1.07.18,1.4.53.33.35.5.75.51,1.2ZM133.31,45.38c1.14,0,2.17-.23,3.08-.7.91-.47,1.66-1.09,2.24-1.87l-2.02-1.55c-.36.52-.82.93-1.38,1.25-.56.32-1.2.48-1.92.48-.59,0-1.14-.11-1.64-.33-.5-.22-.93-.52-1.29-.9-.35-.38-.63-.83-.84-1.35-.2-.52-.31-1.08-.31-1.69s.1-1.16.31-1.69c.21-.52.48-.97.84-1.35.35-.38.78-.68,1.29-.9.51-.22,1.05-.33,1.64-.33.72,0,1.36.16,1.92.48.56.32,1.02.74,1.38,1.25l2.02-1.57c-.58-.76-1.32-1.37-2.24-1.85-.91-.47-1.94-.71-3.08-.71-.99,0-1.89.18-2.72.54s-1.54.84-2.13,1.44c-.59.6-1.05,1.31-1.37,2.12-.32.81-.49,1.67-.49,2.57s.16,1.76.49,2.57c.32.81.78,1.52,1.37,2.12.59.6,1.3,1.08,2.13,1.44.83.36,1.74.54,2.72.54ZM144.68,45.38c.73,0,1.41-.13,2.02-.39.61-.26,1.14-.61,1.58-1.05.44-.44.78-.96,1.02-1.56.24-.6.36-1.24.36-1.91s-.12-1.31-.36-1.91c-.24-.6-.58-1.12-1.02-1.56-.44-.44-.96-.79-1.58-1.05-.61-.26-1.29-.39-2.02-.39s-1.41.13-2.02.39c-.61.26-1.14.61-1.58,1.05-.44.44-.78.96-1.02,1.56-.24.6-.36,1.24-.36,1.91s.12,1.31.36,1.91c.24.6.58,1.12,1.02,1.56.44.44.96.79,1.58,1.05.61.26,1.29.39,2.02.39ZM144.72,43.22c-.76,0-1.39-.26-1.88-.78-.5-.52-.75-1.17-.75-1.96s.25-1.45.75-1.96c.5-.52,1.13-.78,1.88-.78s1.33.26,1.82.78c.49.52.74,1.17.74,1.96s-.25,1.43-.74,1.96c-.49.52-1.1.78-1.82.78ZM154.04,45.02v-5.93c.17-.29.42-.59.75-.89.33-.31.78-.46,1.36-.46s.99.18,1.31.53c.32.35.48.83.48,1.43v5.32h2.33v-5.41c0-.67-.09-1.26-.28-1.77-.19-.5-.44-.93-.76-1.26-.32-.34-.69-.59-1.12-.76-.43-.17-.89-.25-1.38-.25-.6,0-1.12.11-1.56.32-.44.21-.82.47-1.13.77v-.72h-2.29v9.08h2.29ZM165.14,45.02v-5.93c.17-.29.42-.59.75-.89.33-.31.78-.46,1.36-.46s.99.18,1.31.53c.32.35.48.83.48,1.43v5.32h2.32v-5.41c0-.67-.09-1.26-.28-1.77-.19-.5-.44-.93-.76-1.26-.32-.34-.69-.59-1.12-.76-.43-.17-.89-.25-1.38-.25-.6,0-1.12.11-1.56.32-.44.21-.81.47-1.13.77v-.72h-2.29v9.08h2.29ZM178.35,45.38c.85,0,1.62-.17,2.31-.5.68-.33,1.24-.78,1.66-1.34l-1.64-1.3c-.24.32-.56.59-.96.78-.4.2-.84.3-1.33.3-.77,0-1.4-.21-1.89-.63-.49-.42-.77-1-.85-1.75h6.36c.04-.16.07-.35.1-.58.03-.23.04-.47.04-.72,0-1.19-.38-2.17-1.15-2.93-.77-.76-1.78-1.14-3.03-1.14-.75,0-1.41.13-1.98.39-.58.26-1.06.61-1.46,1.05-.4.44-.7.96-.91,1.56-.21.59-.32,1.23-.32,1.9s.11,1.29.33,1.88c.22.59.55,1.11.97,1.56.43.44.96.8,1.59,1.06.63.26,1.35.4,2.15.4ZM179.88,39.21h-4.09c.16-.59.42-1.02.79-1.31.37-.28.83-.42,1.39-.42.6,0,1.07.18,1.4.53.33.35.5.75.51,1.2ZM188.68,45.38c.83,0,1.57-.17,2.23-.5.65-.34,1.19-.78,1.61-1.33l-1.82-1.39c-.22.31-.5.57-.84.77-.34.2-.74.3-1.18.3-.76,0-1.38-.26-1.88-.78-.5-.52-.75-1.17-.75-1.96s.25-1.45.74-1.96c.49-.52,1.11-.78,1.86-.78.47,0,.87.1,1.22.3.34.2.62.45.84.77l1.82-1.39c-.42-.55-.96-1-1.61-1.33-.65-.34-1.4-.5-2.23-.5-.78,0-1.48.13-2.11.4s-1.15.62-1.58,1.06c-.43.44-.75.96-.98,1.56-.23.59-.34,1.22-.34,1.88s.11,1.29.34,1.88c.23.59.56,1.11.98,1.56.43.44.95.8,1.58,1.06.62.26,1.33.4,2.11.4ZM198.25,45.2c.37,0,.7-.02.98-.07.28-.05.54-.12.77-.22v-2c-.16.06-.34.11-.56.14-.22.04-.48.05-.79.05-.44,0-.8-.11-1.05-.32-.26-.22-.39-.58-.39-1.08v-3.68h2.78v-2.09h-2.78v-2.27h-2.31v2.27h-1.7v2.09h1.7v3.68c0,1.11.28,1.96.83,2.58.55.61,1.39.92,2.52.92Z"/>
      <path class="cls-7" d="M35.36,4.87c-.24-.14-.68-.14-.92,0l-21.23,12.19c-.24.14-.44.48-.44.77v24.34c0,.29.19.63.44.77l21.23,12.19c.24.14.68.14.92,0l21.23-12.19c.24-.14.44-.48.44-.77v-24.34c0-.29-.19-.63-.44-.77l-21.23-12.19Z"/>
      <path class="cls-3" d="M34.87,49.68l-16.59-9.52c-.19-.1-.34-.39-.34-.58v-18.75c0-.24.15-.48.34-.58l16.59-9.69"/>
      <path class="cls-2" d="M17.95,39.49v-18.78c0-.24.14-.48.34-.58l16.59-9.58"/>
      <path class="cls-6" d="M28.94,20.71l-5.56,9.54-5.04-10.15,5.96-3.44,4.97,3.49-.32.56Z"/>
      <path class="cls-2" d="M34.87,49.68l16.59-9.63c.19-.1.34-.39.34-.58v-18.73c0-.24-.15-.48-.34-.58l-16.59-9.61"/>
      <path class="cls-8" d="M51.8,39.49v-18.76c0-.24-.14-.48-.34-.58l-16.59-9.6"/>
      <path class="cls-4" d="M40.35,19.95l5.96,10.22,4.97-10.12-6.04-3.5-4.89,3.4Z"/>
      <path class="cls-5" d="M41.16,19.57c.39.2.75.45,1,.84.11.17.25.47.17.7-.11.25-.17.7-.42.78-.31.17-.72.17-1.11.11-.22,0-.42-.06-.64-.11.78.31,1.53.7,2.06,1.42.06.11.25.17.47.17.06,0,.06.11.06.17-.11.11-.22.17-.17.31h.17c.25-.11.22-.64.58-.47.25.17.36.53.22.78-.22.22-.42.36-.64.53-.06.11-.06.25,0,.36.17.22.22.42.25.64.17.36.22.78.36,1.17.22.78.42,1.59.36,2.37,0,.42-.22.78-.06,1.2.11.42.36.73.58,1.12.22.31.42.53.58.84.07.12.15.24.23.35l.08.12c.26.38.5.77.32,1.2-.17.36-.72.31-1.11.53-.31.25-.06.7.11.95.25.47-.31.78-.7.95.11.17.31.11.36.22.06.25.31.42.17.7-.06.09-.16.16-.26.24l-.07.06c-.21.17-.4.35-.2.65.22.36.08.78-.06,1.17-.17.47-.58.7-.95.78-.31.11-.7.11-1,.06-.11-.06-.22-.11-.31-.11-.89-.11-1.78-.36-2.67-.36-.25.06-.53.11-.72.2-.25.17-.45.36-.64.56-.03.06-.08.08-.11.14-.03.03-.06.06-.06.08l-.02.02-.02.02s0,0-.02.02c-.17.2-.28.39-.42.61,0,.03-.03.03-.03.03,0,.03-.03.06-.06.08-.17.31-.31.64-.39.98-.36,1.2-.19,2.23.06,2.48.17.17,2.17.79,3.93,1.36-3.08,2.57-5.57,3.85-7.47,3.85-2.62,0-7.02-1.74-13.19-5.22,1.49,0,1.28.6,2.67-.1.67-.28,2.17-.97,2.67-1.47.31-.31.61-.61.89-.95.56-.64,1.11-1.22,1.75-1.78.19-.17.39-.33.58-.45.06-.06.06-.17.11-.22-.25.11-.42.31-.7.42-.06,0-.11-.06-.06-.11.19-.14.39-.28.56-.42h-.03c-.06,0-.06-.06-.06-.11-.7-.11-1.2.36-1.67.78-.11.06-.22-.06-.25-.06-.78.25-1.36.95-2.14,1.25v-.11c-.31.11-.61.31-.95.36-.47.11-.89.06-1.31.06-.64.06-1.28.19-1.92.33t-.06.03c-.33.08-.67.22-.97.39l-.03.03s-.06.06-.08.08c-.11.11-.22.25-.36.31-.33.17-.58.45-.86.7-.03.03-.06.03-.08.03-.28.28.06-.56.36-.75-.03,0-.08-.03-.06-.06.03-.06.06-.08.08-.14t.03-.06v-.02s-.02-.02-.02-.02c0,0,0,0,0-.02-.08.06-.17.11-.25.17-.14.11-.08-.53.06-.61h-.03c.19-.11.42-.22.61-.33l.08-.08c-.31.11-.56.25-.83.42,0,0,0-.19.08-.28.06,0,.11,0,.11.06,1.01-.78,2.24-.98,3.47-1.16l.34-.05c.73-.11,1.46-.22,2.15-.46.17-.11.31-.22.47-.31.25-.11.47-.36.78-.53.42-.31.72-.7.89-1.2,0-.06-.06-.11-.06-.11-.7.72-1.48,1.31-2.31,1.73-1.11.58-2.31.47-3.48.64.06-.11.17-.11.25-.11,0-.17.11-.22.22-.31h.17c.06,0,.06-.11.11-.11.11,0,.28-.06.22-.06-.17-.22-.47.17-.72,0,.11-.11.06-.25.17-.31h.22c0-.11.11-.22.11-.22.78-.47,1.53-.83,2.25-1.25-.17,0-.25.17-.42.06.11,0,0-.17.11-.17.58-.17,1.06-.47,1.64-.7-.22,0-.36.17-.58,0,.11-.06.17-.17.31-.17v-.17c0-.06.06-.06.11-.06-.06,0-.11-.06-.11-.06.06-.11.22-.06.31-.17-.06,0-.17,0-.17-.06.17-.22.42-.25.7-.31-.06-.11-.22,0-.22-.11,0-.05.04-.05.09-.06h-.09c-.11-.06-.06-.17-.06-.22.31-.36.31-.83.47-1.25-.06,0-.11,0-.11-.06-.53.58-1.36.78-2.14,1h-.36c-.25.11-.64.11-.89-.06-.22-.11-.31-.25-.53-.42-.42-.25-.83-.47-1.31-.64-1.31-.42-2.67-.64-4.04-.58.58-.31,1.22-.33,1.84-.53.89-.25,1.73-.58,2.67-.53-.17-.06-.36,0-.53,0-.72-.06-1.48.17-2.25.31-.53.11-1,.31-1.53.42-.31.11-.47.42-.83.36v-.17c.53-.64,1.17-1.25,2-1.31.95-.17,1.84,0,2.78.11.7.06,1.31.22,2,.36.25,0,.31.42.53.47.31.11.64,0,.95.22,0-.11-.06-.22,0-.31.22-.22.47.06.7-.06.42-.25-.36-.72-.58-1.11,0-.06.06-.11.06-.11.42.36.72.78,1.25,1.06.25.11.89.25.78-.06-.25-.58-.78-1.06-1.22-1.59v-.22c-.11,0-.11-.06-.17-.11v-.22c-.22-.11-.17-.31-.25-.47-.17-.25-.06-.64-.17-.95-.11-.31-.17-.58-.22-.89-.17-.89-.36-1.67-.47-2.53-.11-1,.58-1.78,1.06-2.67.36-.64.78-1.25,1.48-1.67.17-.64.58-1.17,1-1.67.42-.5,1.11-.83,1.61-1.06.67-.31,1.03-.42,1.38-.53,0,0,0,0,0,0,.51-.23,7.27-1.64,10.55,0,.07.04.06,0,.28.14.25.14.56.31.75.39ZM15.68,34.83c0,.24-.16.46-.41.52.41.11.82.11,1.24.3-.06.11-.16.05-.22.05.25.16.58.05.82.24-.16.16-.3,0-.47,0,1.62.46,3.32.82,4.67,1.85-1.15.57-2.33.82-3.57,1.09-.16,0-.25,0-.41-.05,0,.05,0,.16-.05.16-.22,0-.36,0-.52.11-.19.16-.49.22-.66.05-.05-.05.17,0,.22-.11h-.41c-.06,0-.06-.05-.06-.11-.25.05-.58.16-.82.22-.36.11-.19-1.66.06-1.77-.06-.05-.16-.05-.16-.16-.22,0-.3-.54-.16-.57.22-.05.47-.05.63-.22-.36-.05-.47-1.33.14-1.66.06,0,.16,0,.16.05ZM18.07,39.63c-.33.34-.75.19-1.11.34-.11,0-.31.06-.25-.06.03-.17.19-.24.35-.29l.1-.03c.07-.02.13-.05.19-.08.11-.06.25-.19.36-.12.11.19.25.12.36.25ZM16.18,32.51c-.06,0-.11,0-.17-.06.06-.06.06-.11.06-.17-.53.59-1.74.39-.62-.14.42-.17.95-.11,1.37.06-.17.22-.42.17-.64.31ZM41.81,29.01s-.1.02-.15.03c-.26,0-.54.16-.79.22-.37.11-.71.3-1.02.52.37-.16.74-.22,1.16-.3.31-.05.57-.11.91-.05.23.05.54.05.54.16-.11.41-.74.52-1.08.93h-.17c-.17.11-.11.36-.26.36-.17-.05-.31,0-.48.06.23.22.48.36.79.3.06,0,.17.11.17.22,0,0,.06,0,.11-.05.06,0,.11,0,.11.05v.22c-.1.13-.23.14-.37.15h-.09c-.06,0-.12,0-.19.02.43.11.85.11,1.25,0,.31-.11,0-.63.23-.88-.11,0,0-.16-.11-.16.11-.11.23-.25.31-.3.11,0,.26-.05.31-.16,0-.11-.23-.16-.17-.25.31-.22.6-.52.48-.82-.06-.16-.48-.16-.74-.27-.18-.08-.39-.05-.61,0l-.15.03Z"/>
    </g>
  </g>
</svg>