<?xml version="1.0" encoding="UTF-8"?>
<svg id="Calque_1" data-name="Calque 1" xmlns="http://www.w3.org/2000/svg" viewBox="0 0 114.8 36.68">
  <defs>
    <style>
      .cls-1 {
        fill: #eb5829;
      }

      .cls-2 {
        fill: #f2a73b;
      }

      .cls-3 {
        fill: #ea3326;
      }

      .cls-4 {
        fill: #f7d046;
      }

      .cls-5 {
        fill: #ee792f;
      }
    </style>
  </defs>
  <path d="M48.63,6.34h2.51l1.03,3.74.35,1.46h.06l.35-1.46,1.04-3.74h2.51v10.55h-2.02v-3.44c.02-1.25.21-3.64.32-4.73h-.05l-.81,2.83-.82,2.54h-1.16l-.84-2.54-.76-2.83h-.06l.03.25c.12,1.23.29,3.54.29,4.65v3.27h-1.99V6.34ZM58.61,14.89h2.46v-6.54h-2.46v-2h7.32v2h-2.46v6.54h2.46v2h-7.32v-2ZM67.94,15.56l1.37-1.64c.8.65,1.78,1.1,2.81,1.1s1.48-.39,1.48-.91c0-.76-.63-.94-1.63-1.36l-1.37-.59c-1.17-.44-2.24-1.34-2.24-2.88,0-1.75,1.57-3.14,3.87-3.14,1.27,0,2.55.48,3.5,1.38l-1.2,1.5c-.74-.53-1.4-.82-2.43-.82-.79,0-1.32.33-1.32.94s.71.87,1.72,1.25l1.29.55c1.38.52,2.25,1.38,2.25,2.87,0,1.75-1.47,3.27-4.08,3.27-1.43,0-2.9-.52-4.02-1.52ZM80.51,8.35h-3.16v-2h8.72v2h-3.16v8.55h-2.39v-8.55ZM90.08,8.24h1.16c1.25,0,1.93.35,1.93,1.39s-.67,1.57-1.93,1.57h-1.16s0-2.96,0-2.96ZM96.02,16.89l-2.39-4.22c1.13-.51,1.88-1.49,1.88-3.04,0-2.48-1.8-3.27-4.01-3.29h-3.82s0,10.55,0,10.55h2.39v-3.79h1.25l2.01,3.79s2.67,0,2.67,0ZM99.98,12.52l.25-.97.82-3.4h.06c.18.8.4,1.65.6,2.46l.49,1.91h-2.22ZM103.32,16.89h2.53l-3.29-10.55h-2.86l-3.29,10.55h2.44l.64-2.51h3.18s.64,2.51.64,2.51ZM107.72,6.34h2.38v8.55h4.7v2h-7.08V6.34Z"/>
  <path d="M51.4,29.45l.25-.97.82-3.4h.06c.18.8.4,1.65.6,2.46l.49,1.91h-2.22ZM54.74,33.82h2.53l-3.29-10.55h-2.86l-3.29,10.55h2.44l.64-2.51h3.18s.64,2.51.64,2.51ZM58.61,31.81h2.46v-6.55h-2.46v-2h7.32v2h-2.46v6.55h2.46v2h-7.32v-2ZM68.05,34.86h7.82v1.82h-7.82v-1.82Z"/>
  <path d="M34.45,0h-6.89v6.89h6.89V0Z"/>
  <path class="cls-4" d="M37.9,0h-6.89v6.89h6.89V0Z"/>
  <path d="M6.89,0H0v6.89h6.89V0Z"/>
  <path d="M6.89,6.89H0v6.89h6.89v-6.89Z"/>
  <path d="M6.89,13.78H0v6.89h6.89v-6.89Z"/>
  <path d="M6.89,20.67H0v6.89h6.89v-6.89Z"/>
  <path d="M6.89,27.56H0v6.89h6.89v-6.89Z"/>
  <path class="cls-4" d="M10.34,0H3.45v6.89h6.89V0Z"/>
  <path class="cls-2" d="M37.9,6.89h-6.89v6.89h6.89v-6.89Z"/>
  <path class="cls-2" d="M10.34,6.89H3.45v6.89h6.89v-6.89Z"/>
  <path d="M27.56,6.89h-6.89v6.89h6.89v-6.89Z"/>
  <path class="cls-2" d="M31.01,6.89h-6.89v6.89h6.89v-6.89Z"/>
  <path class="cls-2" d="M17.23,6.89h-6.89v6.89h6.89s0-6.89,0-6.89Z"/>
  <path class="cls-5" d="M24.12,13.78h-6.89v6.89h6.89v-6.89Z"/>
  <path class="cls-5" d="M31.01,13.78h-6.89v6.89h6.89v-6.89Z"/>
  <path class="cls-5" d="M17.23,13.78h-6.89v6.89h6.89s0-6.89,0-6.89Z"/>
  <path d="M20.67,20.67h-6.89v6.89h6.89v-6.89Z"/>
  <path class="cls-1" d="M24.12,20.67h-6.89v6.89h6.89v-6.89Z"/>
  <path class="cls-5" d="M37.9,13.78h-6.89v6.89h6.89v-6.89Z"/>
  <path class="cls-5" d="M10.34,13.78H3.45v6.89h6.89v-6.89Z"/>
  <path d="M34.45,20.67h-6.89v6.89h6.89v-6.89Z"/>
  <path class="cls-1" d="M37.9,20.67h-6.89v6.89h6.89v-6.89Z"/>
  <path d="M34.45,27.56h-6.89v6.89h6.89v-6.89Z"/>
  <path class="cls-1" d="M10.34,20.67H3.45v6.89h6.89v-6.89Z"/>
  <path class="cls-3" d="M37.9,27.56h-6.89v6.89h6.89v-6.89Z"/>
  <path class="cls-3" d="M10.34,27.56H3.45v6.89h6.89v-6.89Z"/>
</svg>