<?xml version="1.0" encoding="UTF-8"?>
<svg id="Calque_1" data-name="Calque 1" xmlns="http://www.w3.org/2000/svg" viewBox="0 0 165.58 32">
  <defs>
    <style>
      .cls-1 {
        fill: #8d40ee;
      }
    </style>
  </defs>
  <path class="cls-1" d="M42.28,27.34c-1.7-.01-3.38-.44-4.88-1.25-1.55-.8-2.9-1.95-3.94-3.36-.28-.34-.23-.85.12-1.13,0,0,.01-.01.02-.02l1.88-1.66c.15-.14.35-.21.56-.21h.14c.24.04.46.18.6.38.64,1.02,1.51,1.88,2.54,2.5.99.59,2.12.9,3.28.9,1.25,0,2.2-.25,2.79-.76.58-.49.89-1.22.84-1.97.06-.81-.28-1.6-.91-2.11-.73-.56-1.92-1.08-3.56-1.56-4.85-1.18-7.28-3.47-7.28-6.84,0-2.08.7-3.71,2.09-4.85,1.4-1.14,3.21-1.66,5.51-1.66,3.15-.09,6.16,1.32,8.09,3.81.28.36.24.88-.1,1.18l-1.83,1.53c-.15.14-.35.22-.56.21h-.1c-.24-.02-.45-.15-.59-.35-.56-.81-1.3-1.49-2.16-1.97-.85-.43-1.8-.64-2.76-.63-.95-.04-1.89.22-2.69.73-.58.41-.92,1.09-.91,1.81-.04.72.27,1.41.84,1.87.66.56,1.85,1.01,3.52,1.42,2.27.63,4.04,1.45,5.33,2.53,1.36,1.18,2.06,2.82,2.06,4.89,0,1.22-.36,2.42-1.05,3.43-.7,1.03-1.68,1.83-2.83,2.32-1.27.59-2.66.87-4.06.84ZM60.32,27.41c-1.47.04-2.92-.35-4.18-1.11-1.22-.73-2.21-1.78-2.86-3.05-.7-1.35-1.05-2.85-1.01-4.37-.04-1.51.31-3,1.01-4.33.65-1.26,1.64-2.32,2.86-3.05,1.26-.73,2.69-1.11,4.15-1.11,1.22-.03,2.42.27,3.49.86,1.02.6,1.92,1.39,2.65,2.32.28.37.22.89-.14,1.18l-1.53,1.21c-.15.11-.34.17-.53.18h-.14c-.23-.03-.43-.16-.56-.35-.68-1.12-1.9-1.8-3.21-1.8-.76,0-1.51.21-2.16.59-.66.41-1.18,1-1.5,1.7-.73,1.66-.73,3.54,0,5.2.32.71.84,1.31,1.5,1.73.64.42,1.4.62,2.16.59.7.04,1.39-.1,2.02-.4.57-.31,1.07-.73,1.46-1.25.28-.34.78-.42,1.15-.17l1.64,1.14c.38.27.48.79.21,1.18,0,0,0,0,0,0,0,.02,0,.03-.03.04,0,0,0,0,0,0-.76.93-1.71,1.69-2.79,2.22-1.14.57-2.39.87-3.66.86ZM75.97,27.41c-2.94.06-5.66-1.55-7-4.16-1.36-2.74-1.36-5.96,0-8.7,1.32-2.6,4.02-4.22,6.94-4.16,1.15,0,2.28.25,3.31.76.35.18.67.39.97.63v-.07c0-.46.38-.83.84-.83h2.1c.46,0,.83.38.84.83v14.35c0,.46-.38.82-.84.83h-2.09c-.46,0-.83-.37-.84-.83v-.04c-.32.21-.63.4-.94.59-1.01.54-2.14.81-3.28.8h0ZM75.9,13.99c-.75,0-1.49.2-2.13.59-.64.43-1.15,1.01-1.5,1.7-.38.81-.56,1.7-.56,2.6-.03.91.16,1.81.55,2.63.32.71.84,1.31,1.5,1.73.63.42,1.37.63,2.13.59.77,0,1.53-.21,2.2-.59.66-.42,1.18-1.02,1.5-1.73.73-1.65.73-3.54,0-5.2-.33-.69-.85-1.28-1.5-1.7-.65-.44-1.42-.66-2.2-.62ZM87.55,3.84h2.09c.46,0,.83.38.84.83v21.39c0,.46-.38.83-.84.83h-2.09c-.46,0-.83-.37-.84-.83V4.68c0-.22.08-.44.24-.6.16-.16.38-.24.6-.23h0ZM124.18,26.92c-.37.01-.71-.23-.81-.59l-2.75-8.56-2.96,8.59c-.11.35-.45.57-.81.56h-2.09c-.37.01-.71-.23-.81-.59l-4.78-14.35c-.13-.39.04-.81.4-1.01.14-.07.3-.1.45-.1h2.21c.37-.01.71.23.81.59l2.9,8.94,2.94-8.95c.12-.35.44-.59.81-.59h2.06c.37-.01.71.23.81.59l2.83,8.85,2.86-8.85c.12-.35.44-.59.81-.59h1.99c.12.01.24.03.35.07.41.16.62.62.49,1.04l-4.74,14.36c-.12.35-.44.58-.81.59h-2.16s0,0,0,0ZM140.39,27.41c-2.94.06-5.65-1.55-7.01-4.16-1.36-2.74-1.36-5.96,0-8.7,1.33-2.61,4.04-4.23,6.97-4.16,1.14,0,2.26.28,3.27.8.35.18.67.38.98.62v-.07c0-.47.37-.85.84-.87h2.13c.46,0,.83.38.84.83v14.35c0,.46-.38.82-.84.83h-2.09c-.46,0-.83-.37-.84-.83v-.04c-.3.22-.62.41-.94.59-1.02.53-2.16.8-3.31.79h0ZM140.36,13.99c-.75,0-1.49.2-2.13.59-.64.43-1.16,1.01-1.5,1.7-.39.81-.58,1.7-.56,2.6-.02.91.17,1.81.56,2.63.32.71.84,1.31,1.5,1.73.63.42,1.37.63,2.13.59.76,0,1.51-.2,2.16-.59.66-.42,1.18-1.02,1.5-1.73.73-1.65.73-3.54,0-5.2-.32-.7-.85-1.29-1.5-1.7-.63-.44-1.39-.66-2.16-.62ZM106.02,21.86c-.4-.28-.95-.21-1.26.17-.37.48-.84.89-1.36,1.21-.82.42-1.73.62-2.65.59-1.13.06-2.22-.4-2.96-1.25-.58-.69-.98-1.51-1.15-2.39h10.92c.44,0,.8-.33.84-.76.03-.32.04-.65.03-.97.02-1.42-.33-2.81-1.01-4.05-1.34-2.48-3.95-4.01-6.77-3.99-1.45,0-2.87.38-4.11,1.11-1.21.73-2.2,1.79-2.83,3.05-.68,1.34-1.02,2.83-1.01,4.33-.03,1.52.31,3.02,1.01,4.37.66,1.26,1.65,2.31,2.86,3.05,1.27.73,2.72,1.11,4.18,1.11,1.51.04,3.01-.31,4.36-1,.99-.55,1.85-1.29,2.54-2.18.32-.41.24-.99-.17-1.31,0,0,0,0,0,0-.02,0-.04-.02-.04-.03,0,0,0,0,0,0l-1.43-1.03h0ZM98.04,15c.72-.7,1.69-1.07,2.69-1.04,1.15,0,2.05.27,2.68.9.52.52.88,1.19,1.05,1.91h-7.58c.24-.67.64-1.28,1.17-1.77ZM165.45,11.25c-.17-.21-.42-.34-.7-.35h-1.99c-.36,0-.68.22-.81.56l-4.08,10.46-3.87-10.5c-.14-.32-.46-.52-.81-.52h-2.2c-.28,0-.55.14-.7.38-.16.24-.19.54-.07.8l5.68,14.91c-.09.55-.39,1.05-.84,1.39-.52.35-1.53.38-2.09.4-.48.02-.86.42-.87.9v1.42c0,.49.39.9.88.9,0,0,.01,0,.02,0,.87,0,2.3.07,3.42-.49,2.3-1.21,2.61-2.7,3.27-4.4l5.82-15.11c.07-.25.04-.52-.09-.75h0ZM12.04,23.77c-1.03,0-1.88-.82-1.89-1.85,0-1.03.83-1.87,1.86-1.87h2.3c.67,0,1.21-.54,1.21-1.21v-4.63c0-1.02.83-1.85,1.86-1.85s1.86.83,1.86,1.85v7.29c-.07,1.17-.96,2.12-2.12,2.26h-5.09s0,0,0,0Z"/>
  <path class="cls-1" d="M12.04,23.67h5.08c1.11-.13,1.96-1.05,2.02-2.17v-7.29c0-.97-.79-1.75-1.76-1.75s-1.76.78-1.76,1.75v4.63c0,.72-.59,1.3-1.31,1.31h-2.29c-.97,0-1.76.78-1.76,1.75v.02c.01.97.81,1.75,1.78,1.75ZM9,18.33c-1.02,0-1.86-.83-1.86-1.85h0v-7.29c.06-1.17.95-2.13,2.12-2.27h5.09c1.03,0,1.86.82,1.89,1.84,0,.49-.19.97-.54,1.32-.35.35-.83.55-1.32.55h-2.31c-.67,0-1.21.54-1.21,1.21v4.63c0,1.02-.83,1.85-1.86,1.85h0Z"/>
  <path class="cls-1" d="M14.35,7.03h-5.08c-1.11.13-1.97,1.05-2.02,2.17v7.29c-.03.65.3,1.26.85,1.59.56.33,1.25.33,1.81,0,.56-.33.89-.94.85-1.58v-4.63c0-.35.14-.68.38-.92.25-.25.58-.38.93-.38h2.3c.97,0,1.75-.78,1.76-1.75v-.02c-.02-.97-.81-1.75-1.78-1.75Z"/>
  <path class="cls-1" d="M15.15,3.74c1.95,0,3.81.77,5.19,2.14,1.37,1.37,2.14,3.23,2.14,5.17v14.02c-.18.98-.96,1.73-1.94,1.86h-9.38c-1.94,0-3.81-.77-5.19-2.13-1.37-1.36-2.15-3.22-2.14-5.16V6c0-1.25,1.01-2.27,2.26-2.28l9.06.02ZM15.18,0H5.95C2.72,0,.1,2.61.1,5.82v13.89c0,2.91,1.16,5.7,3.23,7.75,2.07,2.06,4.88,3.21,7.8,3.2h9.76c2.78-.22,5.01-2.38,5.31-5.14v-14.59c0-2.91-1.17-5.7-3.24-7.74C20.9,1.14,18.1,0,15.18,0h0Z"/>
</svg>