<?xml version="1.0" encoding="UTF-8"?>
<svg id="Calque_2" xmlns="http://www.w3.org/2000/svg" version="1.1" viewBox="0 0 3909 277">
  <!-- Generator: Adobe Illustrator 30.2.1, SVG Export Plug-In . SVG Version: 2.1.1 Build 1)  -->
  <defs>
    <style>
      .st0 {
        fill: #f12208;
      }
    </style>
  </defs>
  <path class="st0" d="M2667.5,116.4c-14.4,4.2-27.7,8.1-42.1,5.1l12.7-8.4-4.7-12.7c-11.2-.6-21.5,4.1-27.8,13.6-13.6,6.2-27.8,10.4-43.6,8.6.4-8.5,3.5-16.3,7.5-23.7l8.1-15,10.1-20.7c4.9-10.2.9-22.8-3.9-21.9-1.1.2-3.4,1.7-3.9,2.7-8,15.9-18.3,30.2-31.5,42.5-6.5-6.8-16.5-9.5-25.5-5.9-15.8,6.3-30.6,13.9-44.6,23.7-9.6,6.7-19.1,12.8-25.6,22.9-3.1,4.8-4.5,14.1-3,19.5,3.8,13.4,36-1.7,43.9-5.6,15.8-7.8,30.1-17.2,44.1-28.1,3.3-2.6,7.7-5.9,11.5-4.1-.9,5.2-2.2,9.9-2.4,14.1-.6,11.1,8.4,18.8,19.1,17.7,13.4-1.4,26.1-4.5,38.5-9,11.3,16.1,61,2.1,71.5-9.9l-8.4-5.3ZM2462.6,136.8c1.1-10.3,69.4-53.9,76.1-40.6-22.3,17.6-46.1,33.8-76.1,40.6Z"/>
  <path class="st0" d="M3029.1,62.3l-31.6,16.3c-1.7-4.8-.1-9.1,3.4-11.7l22.6-16.6c5.2-3.8,11.1-7.9,15.6-12.6,6-6.3,27.6-30.7,35.6-29.9,1.8,3.4,3,7.4,3.3,11.2l-33,32.9c-4.4,4.4-10.2,7.4-15.9,10.3Z"/>
  <path class="st0" d="M3562.4,53.7c-3.2,3.3-9.1,5.4-11.9,1.7-4.3-5.6.1-14.4,7.1-16.5l47.3-14,18-5.6c5,2.8-1.5,9.7.4,14.7l-60.9,19.6Z"/>
  <path class="st0" d="M3839.6,157.3c-.6,4.1-2.3,7.8-4.2,9.2-2,1.5-7.6,2.3-9,.1-2.3-3.4-3.6-8.3-2.6-11.4s4.6-7.9,7.9-7.3,8.4,6.3,8,9.4Z"/>
  <path class="st0" d="M3132.8,35c-5.3,1.2-12.2,4.1-16.1,0-3.3-3.3-1.5-13.6,2.8-15.6,5.8-2.7,10,4.2,11.3,8.5l2.1,6.9Z"/>
  <path class="st0" d="M1016.3,81.9l-23.4,16.4c-15.9,11.1-32.4,20.3-51.6,22.9.7-11.1.9-21.8-3.4-29.8-5.6-10.4-39.5,24.4-53.6,27.4,1-12.6,10.2-26-.5-33.7-12.4-10-48.2,11.3-52.7,2.2l-4-8.1c-10,4.3-18.5,13.4-22.2,23.5l8.4,10.5c-4.9,4.3-14.1,9.4-21.6,9.1,6.7-9.6,11.3-20.1,3.9-26.3-18,5-33,9.8-53.1,12.5-.2-10.5,15.4-31.5,3.6-34-29.2,21.8-88.1,50.9-122.2,43.1l7.7-13.9c1.4-2.5-3-9.9-5.8-9.5-7,10.3-44.2,29.7-43.7,19.3.3-6.9,9.3-15.7-.6-23.4-11.1,5.6-19.1,13.1-29.9,21.2l1.4-17.2c.2-1.9-.5-5.6-1.1-7.2-.6-1.7-6.6-1-8.2-.2-28.9,14.6-59.5,28-93.9,33.2.7-8.6,10.5-18.4,4.5-24.7-4.1-4.3-16.1-8-22-7.9-25.1.6-41.1,21-43.3,44.5l-58.9,33.1,1.6-38.3c12.1-1.5,18.2-6.5,19-15.9.8-8.8-2.2-18.7-13.5-21.1-11.7-2.5-13.4,23-20,29.2-20.1,5.9-39.7,9-60.5,5.5-4.2-13.1,10.9-32.1-6.5-37.1,3.2-7,7.1-15.4,8.5-23.5,4.8-27.3-40.8-23.2-56.5-21.2-40.6,5.1-79,14-118.8,22.5-28.7,6.2-56,11.5-83.7,24.8,16.3,1.1,49.9-14.8,73.4-12.7l-37.6,22.2c-10.7,6.3-19.3,16.9-23.1,28-4.7,13.6.7,24.9,13.9,30.2,51.4,20.9,149.6-16.3,197.8-44.5-5.5,6.2-14.4,12.2-21,17.1-1,2.3-2.7,7.9-3.2,10.3-.4,1.8,3.2,3.9,6.4,6l38.7-35.3c.4,8-.1,16.3,1.7,21,7.7,19.6,55.9,5.1,72,2.4.8,12.8.8,25.6-.4,37.5-23.6,14.7-44.1,30-62.4,49.3-15.9,16.8-20.7,46.2-9.9,53.4,16.7,11.2,45.4-20.1,56.4-35.1,11.6-15.7,16.9-35,23.7-53.9,1.7-4.7,10.7-9.6,15.4-12.1l53.8-29.2c11.6-6.3,29.1-2.4,37.8-18,4.7,4.9,12.5,11.8,17.6,10.5,31.3-7.9,57.3-19.2,87.5-31.3l-5.8,15.4c-1,2.5-1,7.3-.5,9.5,2.6,11,30.3-11.1,36.2-16.1,3,6.8,6.5,18.2,15.1,18.8,9.6.6,19.1-5.1,27.5-10.5,13.5,33.2,73.3.3,98.3-9.2l-1.1,9.6c-1.2,10.5,10.9,22.5,22.2,21.1,5.2-.6,7.6-13,11.4-15.4,10.3-6.5,26.3-9.2,37.4-11.9-.3,7.7-.5,14,1.6,18.3,8.6,17.5,39.7-5.2,48-23.4,11.7-8.9,30-11.1,46-12.9,0,15.4-17.3,35.8-1,42.3,18.3-8,34.6-20.3,51.3-32.3,7.5,2.2-4.2,14.2,7.1,25.6,4,4.1,12.6,5.4,19.2,2.9l20.2-7.5,22.3,10.3c10,4.6,25.6,1.1,26.4-11.8l2.7-39.8c0-1.4-.6-4.7-.9-5.8-.3-1.1-4.9-1.2-6.1-.3ZM192,114.5c-35.8,16.1-71.8,28.6-111.1,32.5-14.3,1.4-60.7,1.1-60.3-13.6,0-2.8,2.9-7.8,5.5-10.3,35.9-34.2,105.7-58.8,155.6-52.4l27.6,19.7c1,.7,5.4,1.4,6.7,1.5,1.7.2.6-5.8-1.1-7.2l-33.2-28c10.8-.6,65.1-5.6,67.9,5.5,4.6,18-41.3,44.9-57.5,52.2ZM250.6,261c-8.1-21.3,45.8-60.8,62.2-69.6-1.8,22.7-38.2,75-62.2,69.6ZM425.8,107.1l-21.3,13.7c-.5-10.2,42.3-27.2,21.3-13.7ZM728.9,110.2h-13.7c0,0,14.8-9.2,14.8-9.2,1.5.9,1.1,9.2-1.1,9.2ZM986,120.5l20.7-16.2.2,20.2-20.9-4Z"/>
  <path class="st0" d="M745,3.9c-3.8-6.4-22.9-5.1-27.5,5.1-2.4,5.4-.9,13,2.7,17.4,10.6-13.3,30.2-13.4,24.8-22.5Z"/>
  <path class="st0" d="M1371.2,82.6c-41.5,15-51.1,48.1-94.4,38.2-5.8-16.4,4.8-33.2,18.2-42.1,21.7-14.3,40.6-28.8,60.4-45.8,4.8-4.1,9.1-18.9,1.8-22-21.3-8.9-45.1,3.4-55.8,22.4-8.7,15.6-17.6,31.8-28.5,45.2-40.1,23.8-80.7,41.3-123.2,59.4-3.9,1.7-7.8,5.5-9.2,8.3-1.1,2.4.3,10.2,2.6,11.2,4.4.6,10.5-5,14.7-6.8,36.3-15.4,70.4-32.4,105.3-50.6-.8,14.5-2.5,22.3,3.9,30.6,4.7,6.1,14.2,11.2,23.8,9.8l21.4-3.3c18.2-2.8,34.4-6.8,50.1-17.7l9.4,14.1c1.9,2.8,10.4,3.5,13.7,1.7,2.5-1.3,4.6-5.9,4.7-9.2l-11.6-7.7c4.1-10-1.7-28.4-7.3-35.7ZM1345.5,24.9c-13.7,13-26.4,23-42.1,32.8,5.4-20,20.5-34.5,42.1-32.8Z"/>
  <path class="st0" d="M2349.2,122c0-.1,0-.3,0-.4-.1-.6-.3-1.2-.5-1.9l-14.1,4.1-3.2.9c1.7-2.8,3.4-5.4,4.7-7.9,0,0,0,0,0,0,1.3-2.5,2.3-4.9,2.8-7.3,0-.1,0-.2,0-.4.5-2.6.4-5.1-.5-7.6-.8-2.3-2.3-4.6-4.6-6.9-1.7-1.7-4.2-2.6-6.9-2.7-.6,0-1.2,0-1.8,0,0,0,0,0-.1,0-5.7.3-12.1,3.1-15.1,7.1l-14.2,19.6c-1.7,2.3-12.5,5.6-23.6,6.5-.4,0-.8,0-1.1,0-.8,0-1.5,0-2.3.1s-1.5,0-2.3,0c-1.1,0-2.2,0-3.3-.1-1.1,0-2.2-.2-3.2-.3-.7,0-1.4-.2-2-.3-.3,0-.7-.1-1-.2-.6-.2-1.3-.3-1.9-.5-.3,0-.6-.2-.9-.3-1.7-.6-3.3-1.4-4.5-2.5-.5-.4-1-.9-1.4-1.4-.1-.2-.3-.3-.4-.5-.2-.3-.5-.7-.6-1.1-.4-.7-.6-1.5-.8-2.4,0-.5-.2-1-.2-1.6,0-.6,0-1.2,0-1.9,0-.2,0-.5,0-.8,0-4.3-3.3-13.1-6.9-12.7-2.8.3-5.4,1-7.9,1.8-.6.2-1.2.5-1.8.7-1.6.7-3.1,1.4-4.6,2.2-4.8,2.6-9.3,5.9-14.4,9.2l-5.1-15.3c-19.7,4.6-36.4,13-53.8,23.6-5.7,3.5-13,6.7-19.8,4.1,1.1-3.9,2.5-6.5,4.1-8.6.2-.3.4-.5.6-.7.4-.5.8-.9,1.2-1.3,0,0,0,0,0,0,2.4-2.4,5-3.9,7.1-6.5,0,0,.1-.1.2-.2.3-.4.6-.8,1-1.3.2-.3.3-.5.5-.8,1-1.6,1.8-3.7,2.5-6.4.3-1.2-1.3-3.5-3.1-5-.1-.1-.3-.2-.4-.3-.1-.1-.3-.2-.4-.3-.8-.6-1.7-.8-2.2-.6-10.1,4.4-21,9.9-32.6,14.3-1.2.5-2.5.9-3.7,1.4-.7.3-1.4.5-2.2.8-8.7,3-17.7,5.3-26.9,5.9-.8,0-1.5.1-2.3.1l11.3-9.3h0c.3-.3.6-.7.8-1.1,0,0,0,0,0-.1.5-1,.7-2.4.6-3.9,0,0,0,0,0,0,0-2-.6-4.2-1.4-6-.7-1.4-1.6-2.5-2.7-2.9-17-6.5-26.3,7-35.2,12.9-1.8,1.2-3.6,2.1-5.4,2.5l-90.4,17.4c5.9-4,12.2-7.2,18.7-10.3.8-.4,1.6-.8,2.4-1.1,5.6-2.6,11.3-5.2,16.8-8.2,1.4-.7,1.8-2.9,1.7-5.4,0,0,0,0,0,0,0-.7-.1-1.4-.2-2.1,0-.4-.1-.7-.2-1.1-.4-2.1-1.2-4-2-4.9-.5-.6-1.2-1.3-2-1.9-2.7-2.2-6.6-4.1-9.6-4.5-8.9-1.1-15.3,1.3-20.5,5.4-4.5,3.5-8.1,8.2-11.8,13-1.8,2.4-3.7,4.8-5.7,7-10.8,12.2-45.2,16.4-59.7,9.9-.3-.1-.6-.3-.9-.4-1.5-.8-2.7-1.6-3.6-2.7-1.1-1.2-1.7-2.5-1.9-4,0-.3,0-.7,0-1,0-1.4.4-2.9,1.3-4.6,5.3-10.3,10.8-21.6,18.7-30.1.9-.9,1.8-1.9,2.7-2.7.6-.6,1.3-1.2,1.9-1.7l34.9-29.1c1.3-1.1,2.5-2.5,3.3-4,.1-.3.3-.5.4-.8.1-.2.2-.5.3-.7.1-.3.3-.7.4-1,0-.2,0-.3.1-.5.1-.4.2-.9.2-1.3,0,0,0-.1,0-.2.1-1.3,0-2.5-.5-3.6-6.9-13.8-27,3.7-36.6,14.4,0,0,0,0,0,.1-1.3,1.5-2.5,2.9-3.3,4l-34,44.9c-12.2-22.5-46.7,10-57.9,18.5-.2.2-.5.4-.7.5-.3.2-.6.4-.9.6,0,0-.1,0-.2.1-.5.3-1.1.7-1.7,1-.6.4-1.3.7-1.9,1-.9.5-1.9.9-2.9,1.3-.6.3-1.3.5-2,.7-.7.3-1.4.5-2.2.7-.5.2-1.1.3-1.6.5-1,.3-2,.5-3,.7-.2,0-.5,0-.7.1-1,.2-2.1.4-3.1.6-1.2.2-2.3.3-3.5.5-3.5.4-7.1.6-10.7.7-1.2,0-2.4,0-3.6,0-5.9,0-11.8,0-17-.1,7.8-5,14.8-8.8,20-14.5,2.1-2.3,3.9-5,5.3-8.1.3-.8.7-1.6,1-2.4.3-.8.6-1.7.8-2.6.2-.9.4-2,.3-3.2,0-.4,0-.8,0-1.2,0-.8-.2-1.7-.3-2.5-.3-1.4-.7-2.9-1.3-4.1,0,0,0,0,0-.1-1.1-2.3-2.5-4.1-4.3-4.1-19.1-.7-27.6,12.4-35.6,25.2-1.3,2-2.5,4.1-3.8,6-.3.4-.9.9-1.6,1.4-.3.2-.7.5-1.1.7-.3.2-.5.3-.8.5-13.7,7.3-59.5,18.3-64.2,1.3-.4-1.5-.5-3.2-.2-5.2.2-1.6.3-3.5.3-5.4,0-3.4-.5-7-1.7-9.9,0-.1-.1-.3-.2-.4-.9-2.1-2.1-3.7-3.8-4.7-15.3,1.5-33.3,29.2-55.4,33.6-.4-3.5-.5-6.9-.7-10.1-.5-6.4-1.3-12.1-5.5-16.8-.4-.5-.9-.9-1.3-1.4-1.5-.1-3.5.8-5.8,2.3-3.2,2.2-6.8,5.7-10.4,9.3-.4.4-.8.8-1.2,1.3-1.4,1.4-2.8,2.9-4.1,4.2-.4.4-.8.8-1.1,1.2-4.3,4.4-7.5,7.3-7.8,5.2-.2-1.2-.2-2.4-.3-3.5-.1-5.8,1.4-9.8,1-14.1,0-.1,0-.2,0-.3,0-.6-.2-1.2-.3-1.8-.1-.5-.3-1.1-.5-1.6-.2-.6-.5-1.2-.8-1.8-.4-.8-.9-1.5-1.5-2.3-.7-1-1.6-1.9-2.6-3-.3-.4-.7-.7-1.1-1.1l-45.9,38.2c-.4.4-.9.7-1.3,1.1-3.4,2.8-6.9,5.8-8.7,8.5-1.6,2.6-1.7,6.3,0,9.8.1.3.3.6.4.8.9,1.5,2,3,3.6,4.4l42.9-39.3-2.6,17.8-.5,3.6s0,0,0,0c0,.2,0,.4,0,.7,0,0,0,0,0,0,0,1.4.7,3.2,1.7,4.9,0,.1.1.2.2.4.1.2.2.4.4.5,1.8,2.6,4.3,4.6,6.5,3.5,3.2-1.6,6.2-3.3,9-5.2.7-.5,1.4-1,2.1-1.5,1-.7,1.9-1.5,2.9-2.2,4.3-3.5,8.3-7.3,12.4-11.5.6-.6,1.3-1.3,1.9-1.9,1.3-1.3,2.6-2.6,3.9-3.9.6,4,1.5,9.4,3.3,14,1.7,4.2,4.1,7.7,7.7,8.7,20.4-2,34.5-17.4,51-32.2,0,1,0,2,.1,2.9,0,.2,0,.3,0,.5.1,1.4.3,2.7.5,4.1,0,.2,0,.3,0,.5.2.9.4,1.8.6,2.7.1.5.2,1,.4,1.4.6,2.1,1.4,4.1,2.3,6,.4.7.7,1.5,1.2,2.2.4.6.8,1.2,1.2,1.8,0,.1.2.3.3.4.7,1,1.5,2,2.4,2.9,0,0,0,0,0,0,4.1,4.3,9.5,7.1,16.3,7.9,6.1.7,12.2.4,18.2-.5,12.6-1.9,25.1-6.6,37.1-10.9.5.7,1,1.3,1.6,1.9,13.5,15.1,37.5,8.7,56.9,4.4,4.7-1,9.1-1.9,13-2.4,14.7,21.6,43-7.2,57.8-17.1,1.9,3.6,4.1,8.6,6.9,12.6,1.8,2.6,3.8,4.9,6.1,5.9,9.7,4.6,23.8,7.3,33.6,4.6l31.1-8.7,2.6,3.1,5.5,6.5c14,3.9,32.3-2.5,51.1-8.4.6-.2,1.1-.3,1.7-.5,2.5-.8,5-1.5,7.4-2.3,10.3-3,20.6-5.3,30.1-5.2l4.3,8.2,4.6,8.6h0l27.9-7.1c10.1-2.6,19.7-5.9,29.3-9.6,5.8-2.2,11.5-4.4,17.4-6.6,0,1.2-.1,2.3-.1,3.5,0,2.9.3,5.7.9,8.4.2,1.1.6,2.1.9,3.1s.4,1,.6,1.4c.4.9.9,1.8,1.4,2.7,1.1,1.7,2.4,3.2,3.9,4.3,5.5,4.2,15,2.6,21.4-1.2l43.4-25.7c0,.4,0,.8,0,1.1-.4,9.2-3.1,14.8-.7,20.5.1.3.3.7.5,1,0,0,0,0,0,0,.6,1.2,1.4,2.3,2.5,3.5h0c2.6-1.5,5.2-3.1,7.8-4.7,10.1-6.3,19.6-13.2,28.9-20.3.9,3.5,2.1,7.2,3.6,10.6,2.5,5.7,5.9,10.6,10.8,12.8,12.8,5.9,25.7,2.8,37.9,1.3.1,0,.3,0,.4,0,1.5-.2,2.9-.3,4.4-.4,1.7-.1,3.3-.2,5-.2,1.6,0,3.1,0,4.7.3,0,0,.1,0,.2,0,11.8,1.5,21.1,5.1,32.9,1.1.2,0,.4-.1.6-.2.7-.3,1.5-.6,2.2-.9.5-.2,1-.4,1.5-.7.9-.4,1.7-.8,2.6-1.3,1.1-.6,2.2-1.2,3.3-1.9.6-.4,1.3-.8,1.9-1.3.2-.2.5-.4.7-.5.5-.4,1-.8,1.5-1.3,2.8-2.7,4.6-6,4.1-10.2,0-.3,0-.6-.1-.9Z"/>
  <path class="st0" d="M2194.9,47.7c2.9.7,5.5-1.3,7.1-4,.2-.3.3-.6.5-.9.2-.5.4-.9.5-1.4.5-1.4.6-2.9.4-4.1-.7-3-5.7-8.5-8.7-7.3-.2,0-.4.2-.5.2-3.8,2-6.3,8.5-4.5,13.1.8,2,2.5,3.6,5.2,4.3Z"/>
  <path class="st0" d="M1761.8,32.9c0,2.8.7,5.6,1.5,6.5l65-10.5c11.2-1.8,85.2-9,87.4-18.3.1-.5,0-.9-.2-1.4-.8,0-1.7,0-2.6,0-1,0-2,0-3.1,0-1.7,0-3.6,0-5.6,0-.7,0-1.4,0-2.1,0-2.1,0-4.4,0-6.8,0,0,0,0,0,0,0-30.4.6-81.3,3.4-110.6,9.5-3.1.6-5.9,1.3-8.5,2-7,2-11.9,4.2-13.5,6.8-.6.9-.9,2.6-.9,4.4,0,.3,0,.7,0,1Z"/>
  <path class="st0" d="M3733.7,121.1c-11.3,2.9-22,5.4-35.1,2.7l12.5-14.4c1.4-3.4-.7-10.2-2.9-13.1-6.8.4-13.2,3-19,5.9l-29.8,15.2-.8-2.9c6.6-4.4,5.9-15.1,1.1-19.3l-29.8,3.8-3.6-9.6c-4.8-2.2-8.1,1.3-11.4,4.5-8.6,8.3-17.5,15.9-28.5,23.3,2.7-7.5,6.4-14.9,1.8-21.3-1.1-1.6-5.5-1.1-7.2-.1-14.7,8.8-49.7,28.1-66.5,24.7l28.4-14.3-.6-14c-20.5-11.6-40,14.3-46.6,18.2-12.2,7.2-27.7,7.9-42.1,10.1,2.3-5.3,14.9-9.3,15.2-15.3.3-4.5-1.5-9.8-3.4-13.2l-19.9-2c9.4-10.1,3.4-21.3.4-21.6-1.4-.1-4.6,1.4-5.6,2.5l-15.2,18.2c-9.4,11.2-45.4,33.9-63.2,36.5,4.1-11.9,10.3-19.7,2.4-31.5-4-.7-6.8,2.8-9.2,5.5-5.6,6.4-12.3,11.4-18.7,16.9-3.3,2.9-6,5.5-10.2,7.2,8.1-15.8,20.6-22.2,10.4-39.4-3.6.3-7.5,3.3-9.8,6.6-8,11.7-18.6,19.3-30.8,26-10.1,5.5-20.1,10.6-32,11.6l-4.9-12.2c-2.3-.8-7.4,0-10.1,1.2l-21.5,10c-1.1-6.9-.8-12.4-5.1-16.2-2.4-2-9.3.3-12.4,1.5l-27.3,10c7.8-12.3.1-22.2-2.7-21.3-31.5,10.2-54.5,22.4-87.7,25.7-1.2-12.1,14-15.6,15.2-20.8.6-2.7-1.1-10.8-3.8-12.8-3.4-2.5-14.9,9.9-24.6,14.5-14.2,6.7-27.9,12.3-42.7,17.4-14.8,5.1-22.1-2-23.6,10.3-.2,1.8-.4,4.4.2,5.6,5.6,11.1,54.1-11.1,63.6-15.4-.3,4.7.3,10,3.3,13.3,7.7,8.7,25.9,1.8,37.5-.9,12.7-3,24.4-7.5,36.7-12.2l12-4.6-3.3,13.4c-.4,1.8.3,5.5,1.7,6.6,4.5,3.5,16.9-1.5,23.3-4.1l23.6-9.9c-1,5.8-2.1,9.3-.7,11.9,6,11,28.2-.3,37.4-5.4,5.6,20.8,38.6,3,51.9-1.9l-46.3,56.8c-4.9,6-12.5,16.9-5.9,22.6,2.4,2.1,6.3,1,8.8-1.7,6.1-6.4,12.3-11,18.3-16.8l30.3-29.4,39.1-34.8c.8,4.3,1.3,8.7,3,10.6,7.7,8.5,37.8-5.8,46.9-10.7,13.9-7.5,27-16.1,37.8-26.9l12.6,4.5c-6.5,6.5-9.7,14.5-11.1,22.8l6.9,7.7c17.8-.3,34.1-3.6,50.9-8.3,9.4,19.6,60.6.8,75.3-8.3-1,6.4-3,12.9,2.6,16.3,14.3,8.7,37.9-17.5,48.5-24.8l18.3,1.9c-4.4,6.8-9.9,14.1-11.3,22-.3,1.9,1.6,5.3,3.2,5.7,11.9,2.8,41.2-12.2,54.3-18.1-1.6,7.4,2.1,15,9.6,16.4,9.4,1.7,19.9,1.4,29.4-.8l19.6-4.6,6.4-7c1.5-1.7.6-6.5,0-9.6l-13.8,3.5Z"/>
  <path class="st0" d="M3903.5,3.1c-6,.6-6.6,10.3-11.1,13l-17.2,10.5c4.6,3.3,9.7-2.8,16.7-3.5-2.1,5.6-2.8,7.9-4.6,11.2-9.1,17.4-17.9,34.4-25.2,52.8l-6.6,16.7c-.8,2,1.1,6.3,2.8,7.5,1.5,1,5.6,1.7,7.5.8,2.4-4.1,5.7-9.7,7.8-14.3l4.1-8.9c.4-.9.7-3.9,1.6-4.2l3.8-1.2c-2-2.8-2.2-5.3-.7-8.2l18.6-35.5c1.4-2.7,3.8-7.1,4.5-9.6l3.8-13.6c.7-3.2-1.1-14-5.7-13.6Z"/>
  <path class="st0" d="M2852.6,106l17.5-12.2c5-3.5,8.9-7.8,13.3-12.2,23.2-23.6,29.3-28.8,43.5-60.2,1-2.2-1.1-7.9-3-9.1-8.7-5.3-28.4,16.4-35.3,23.2-18.8,18.5-35.6,38.1-48.9,60.9l-37.1,18.2-30.3,14c-8.2,3.8-16.5,7.1-23.7,12.8-1.5,2.6-2.1,8.9-1.2,12,.6,1.9,6.1,2.8,8.1,1.7,6.7-3.8,14.8-8.3,22-11.8l10.9-5.3,23.7-11.7,16.3-7.2c-.8,9.1-2.2,18.7,5.1,25.4,13.7,12.5,45.7-1.1,56.8-13.1,0-1.6-3.6-5.6-5.4-5.1l-23.2,6.3c-6.2,1.7-13.6,2.1-19.7-1.9.7-8.1,3.6-19.5,10.7-24.5ZM2894.5,50.5c-5.7,7.9-16.3,20-23.8,22.5,6.8-9.2,13.8-17.5,23.8-22.5Z"/>
</svg>